<?xml version="1.0" encoding="UTF-8" standalone="no"?>
<!DOCTYPE svg PUBLIC "-//W3C//DTD SVG 1.1//EN" "http://www.w3.org/Graphics/SVG/1.1/DTD/svg11.dtd">
<svg width="100%" height="100%" viewBox="0 0 434 136" version="1.1" xmlns="http://www.w3.org/2000/svg" xmlns:xlink="http://www.w3.org/1999/xlink" xml:space="preserve" xmlns:serif="http://www.serif.com/" style="fill-rule:evenodd;clip-rule:evenodd;stroke-linejoin:round;stroke-miterlimit:2;">
    <g transform="matrix(1,0,0,1,-772.9,-237.857826)">
        <g id="_2026-Logo-Light" serif:id="2026 Logo Light" transform="matrix(0.852559,0,0,0.798122,297.172047,237.857826)">
            <rect x="558" y="0" width="508" height="170.4" style="fill:rgb(224,231,255);"/>
            <clipPath id="_clip1">
                <rect x="558" y="0" width="508" height="170.4"/>
            </clipPath>
            <g clip-path="url(#_clip1)">
                <g transform="matrix(0.769227,0,0,1.609738,23.230674,-63.327492)">
                    <g transform="matrix(-1,0,-0,-1,1585.585089,185.591342)">
                        <g transform="matrix(1,0,0,0.510451,0,55.504314)">
                            <path d="M766.798,101.39L758.467,110.03L711.021,62.585C695.577,47.141 690.957,23.914 699.316,3.736C707.674,-16.442 727.364,-29.599 749.205,-29.599L890.382,-29.599L879.087,-17.599L749.205,-17.599C732.218,-17.599 716.903,-7.366 710.402,8.328C703.901,24.022 707.495,42.087 719.507,54.099L766.798,101.39Z" style="fill:rgb(49,44,133);"/>
                        </g>
                        <g transform="matrix(1,0,0,0.510451,0,55.504314)">
                            <path d="M783.408,84.06L775.18,92.802L727.992,45.614C719.412,37.034 716.845,24.131 721.489,12.92C726.132,1.71 737.071,-5.599 749.205,-5.599L867.793,-5.599L856.499,6.401L749.205,6.401C741.925,6.401 735.361,10.786 732.575,17.513C729.789,24.239 731.329,31.981 736.477,37.129L783.408,84.06Z" style="fill:rgb(55,42,172);"/>
                        </g>
                        <g transform="matrix(1,0,0,0.510451,0,55.504314)">
                            <path d="M845.205,18.401L833.911,30.401L763.69,30.401L773.505,40.215L765.02,48.701L744.962,28.643C743.246,26.928 742.733,24.347 743.662,22.105C744.591,19.863 746.778,18.401 749.205,18.401L845.205,18.401Z" style="fill:rgb(67,45,215);"/>
                        </g>
                    </g>
                    <g>
                        <g transform="matrix(1,0,0,0.510451,0,55.504314)">
                            <path d="M766.798,99.323L758.467,107.963L711.021,60.518C695.577,45.074 690.957,21.847 699.316,1.669C707.674,-18.51 727.364,-31.666 749.205,-31.666L890.382,-31.666L879.087,-19.666L749.205,-19.666C732.218,-19.666 716.903,-9.433 710.402,6.261C703.901,21.955 707.495,40.02 719.507,52.032L766.798,99.323Z" style="fill:rgb(67,45,215);"/>
                        </g>
                        <g transform="matrix(1,0,0,0.510451,0,55.504314)">
                            <path d="M783.408,81.993L775.18,90.735L727.992,43.547C719.412,34.967 716.845,22.063 721.489,10.853C726.132,-0.357 737.071,-7.666 749.205,-7.666L867.793,-7.666L856.499,4.334L749.205,4.334C741.925,4.334 735.361,8.719 732.575,15.445C729.789,22.172 731.329,29.914 736.477,35.062L783.408,81.993Z" style="fill:rgb(55,42,172);"/>
                        </g>
                        <g transform="matrix(1,0,0,0.510451,0,55.504314)">
                            <path d="M845.205,16.334L833.911,28.334L763.69,28.334L773.505,38.148L765.02,46.634L744.962,26.576C743.246,24.86 742.733,22.28 743.662,20.038C744.591,17.796 746.778,16.334 749.205,16.334L845.205,16.334Z" style="fill:rgb(49,44,133);"/>
                        </g>
                    </g>
                </g>
                <g transform="matrix(1.172939,0,0,1.252941,-135.849086,-146.983267)">
                    <path d="M760.371,172.922C757.534,172.922 755.005,172.437 752.783,171.466C750.562,170.495 748.798,169.077 747.491,167.21C746.185,165.343 745.513,163.085 745.475,160.434L753.763,160.434C753.801,161.554 754.09,162.562 754.631,163.458C755.173,164.354 755.929,165.063 756.899,165.586C757.87,166.109 759.009,166.37 760.315,166.37C761.473,166.37 762.471,166.183 763.311,165.81C764.151,165.437 764.805,164.914 765.271,164.242C765.738,163.57 765.971,162.749 765.971,161.778C765.971,160.733 765.701,159.837 765.159,159.09C764.618,158.343 763.881,157.709 762.947,157.186C762.014,156.663 760.941,156.187 759.727,155.758C758.514,155.329 757.217,154.89 755.835,154.442C752.737,153.434 750.375,152.09 748.751,150.41C747.127,148.73 746.315,146.49 746.315,143.69C746.315,141.301 746.885,139.266 748.023,137.586C749.162,135.906 750.749,134.618 752.783,133.722C754.818,132.826 757.123,132.378 759.699,132.378C762.35,132.378 764.683,132.835 766.699,133.75C768.715,134.665 770.311,135.981 771.487,137.698C772.663,139.415 773.289,141.45 773.363,143.802L764.963,143.802C764.926,142.943 764.683,142.15 764.235,141.422C763.787,140.694 763.171,140.106 762.387,139.658C761.603,139.21 760.67,138.986 759.587,138.986C758.654,138.949 757.805,139.089 757.039,139.406C756.274,139.723 755.667,140.19 755.219,140.806C754.771,141.422 754.547,142.197 754.547,143.13C754.547,144.063 754.771,144.838 755.219,145.454C755.667,146.07 756.293,146.602 757.095,147.05C757.898,147.498 758.841,147.918 759.923,148.31C761.006,148.702 762.182,149.103 763.451,149.514C765.43,150.186 767.241,150.979 768.883,151.894C770.526,152.809 771.842,153.994 772.831,155.45C773.821,156.906 774.315,158.829 774.315,161.218C774.315,163.309 773.774,165.241 772.691,167.014C771.609,168.787 770.041,170.215 767.987,171.298C765.934,172.381 763.395,172.922 760.371,172.922Z" style="fill:rgb(49,44,133);fill-rule:nonzero;"/>
                    <path d="M798.395,172.922C794.475,172.922 791.097,172.073 788.259,170.374C785.422,168.675 783.238,166.305 781.707,163.262C780.177,160.219 779.411,156.701 779.411,152.706C779.411,148.711 780.177,145.183 781.707,142.122C783.238,139.061 785.422,136.671 788.259,134.954C791.097,133.237 794.475,132.378 798.395,132.378C803.137,132.378 807.038,133.573 810.099,135.962C813.161,138.351 815.065,141.711 815.811,146.042L807.187,146.042C806.739,143.951 805.759,142.337 804.247,141.198C802.735,140.059 800.747,139.49 798.283,139.49C796.006,139.49 794.055,140.022 792.431,141.086C790.807,142.15 789.566,143.671 788.707,145.65C787.849,147.629 787.419,149.981 787.419,152.706C787.419,155.431 787.849,157.774 788.707,159.734C789.566,161.694 790.807,163.206 792.431,164.27C794.055,165.334 796.006,165.866 798.283,165.866C800.747,165.866 802.726,165.334 804.219,164.27C805.713,163.206 806.702,161.722 807.187,159.818L815.811,159.818C815.065,163.887 813.161,167.089 810.099,169.422C807.038,171.755 803.137,172.922 798.395,172.922Z" style="fill:rgb(49,44,133);fill-rule:nonzero;"/>
                    <path d="M846.835,172.25L846.835,133.05L854.675,133.05L854.675,172.25L846.835,172.25ZM822.139,172.25L822.139,133.05L829.979,133.05L829.979,172.25L822.139,172.25ZM828.971,155.394L828.971,149.066L848.123,149.066L848.123,155.394L828.971,155.394Z" style="fill:rgb(49,44,133);fill-rule:nonzero;"/>
                    <path d="M862.291,172.25L862.291,133.05L871.699,133.05L883.515,157.186L895.163,133.05L904.515,133.05L904.515,172.25L896.675,172.25L896.675,146.322L886.539,166.762L880.323,166.762L870.131,146.322L870.131,172.25L862.291,172.25Z" style="fill:rgb(49,44,133);fill-rule:nonzero;"/>
                    <rect x="912.131" y="133.05" width="7.84" height="39.2" style="fill:rgb(49,44,133);fill-rule:nonzero;"/>
                    <path d="M927.587,172.25L927.587,133.05L940.915,133.05C945.433,133.05 949.185,133.862 952.171,135.486C955.158,137.11 957.37,139.387 958.807,142.318C960.245,145.249 960.963,148.693 960.963,152.65C960.963,156.57 960.245,160.005 958.807,162.954C957.37,165.903 955.167,168.19 952.199,169.814C949.231,171.438 945.451,172.25 940.859,172.25L927.587,172.25ZM935.427,165.53L940.467,165.53C943.603,165.53 946.077,165.017 947.887,163.99C949.698,162.963 950.995,161.489 951.779,159.566C952.563,157.643 952.955,155.338 952.955,152.65C952.955,149.962 952.563,147.657 951.779,145.734C950.995,143.811 949.698,142.327 947.887,141.282C946.077,140.237 943.603,139.714 940.467,139.714L935.427,139.714L935.427,165.53Z" style="fill:rgb(49,44,133);fill-rule:nonzero;"/>
                    <path d="M967.291,172.25L967.291,133.05L975.131,133.05L975.131,166.146L992.267,166.146L992.267,172.25L967.291,172.25Z" style="fill:rgb(49,44,133);fill-rule:nonzero;"/>
                    <path d="M998.763,172.25L998.763,133.05L1024.691,133.05L1024.691,139.378L1006.603,139.378L1006.603,149.29L1023.011,149.29L1023.011,155.394L1006.603,155.394L1006.603,165.922L1024.691,165.922L1024.691,172.25L998.763,172.25Z" style="fill:rgb(49,44,133);fill-rule:nonzero;"/>
                </g>
                <g transform="matrix(1.172939,0,0,1.252941,-201.435368,-5.531783)">
                    <rect x="801.391" y="84.804" width="7.84" height="39.2" style="fill:rgb(49,44,133);fill-rule:nonzero;"/>
                    <path d="M816.847,124.004L816.847,84.804L826.255,84.804L838.071,108.94L849.719,84.804L859.071,84.804L859.071,124.004L851.231,124.004L851.231,98.076L841.095,118.516L834.879,118.516L824.687,98.076L824.687,124.004L816.847,124.004Z" style="fill:rgb(49,44,133);fill-rule:nonzero;"/>
                    <path d="M866.687,124.004L866.687,84.804L881.583,84.804C884.757,84.804 887.389,85.345 889.479,86.428C891.57,87.51 893.129,88.976 894.155,90.824C895.182,92.672 895.695,94.772 895.695,97.124C895.695,99.289 895.201,101.296 894.211,103.144C893.222,104.992 891.682,106.494 889.591,107.652C887.501,108.809 884.831,109.388 881.583,109.388L874.527,109.388L874.527,124.004L866.687,124.004ZM874.527,103.06L881.079,103.06C883.431,103.06 885.121,102.518 886.147,101.436C887.174,100.353 887.687,98.916 887.687,97.124C887.687,95.257 887.174,93.801 886.147,92.756C885.121,91.71 883.431,91.188 881.079,91.188L874.527,91.188L874.527,103.06Z" style="fill:rgb(49,44,133);fill-rule:nonzero;"/>
                    <path d="M916.583,124.676C913.671,124.676 911.039,124.097 908.687,122.94C906.335,121.782 904.459,120.037 903.059,117.704C901.659,115.37 900.959,112.412 900.959,108.828L900.959,84.804L908.799,84.804L908.799,108.884C908.799,110.788 909.117,112.374 909.751,113.644C910.386,114.913 911.291,115.874 912.467,116.528C913.643,117.181 915.071,117.508 916.751,117.508C918.431,117.508 919.859,117.181 921.035,116.528C922.211,115.874 923.117,114.913 923.751,113.644C924.386,112.374 924.703,110.788 924.703,108.884L924.703,84.804L932.543,84.804L932.543,108.828C932.543,112.412 931.825,115.37 930.387,117.704C928.95,120.037 927.018,121.782 924.591,122.94C922.165,124.097 919.495,124.676 916.583,124.676Z" style="fill:rgb(49,44,133);fill-rule:nonzero;"/>
                    <path d="M939.767,124.004L939.767,84.804L947.607,84.804L947.607,117.9L964.743,117.9L964.743,124.004L939.767,124.004Z" style="fill:rgb(49,44,133);fill-rule:nonzero;"/>
                    <path d="M983.167,124.676C980.33,124.676 977.801,124.19 975.579,123.22C973.358,122.249 971.594,120.83 970.287,118.964C968.981,117.097 968.309,114.838 968.271,112.188L976.559,112.188C976.597,113.308 976.886,114.316 977.427,115.212C977.969,116.108 978.725,116.817 979.695,117.34C980.666,117.862 981.805,118.124 983.111,118.124C984.269,118.124 985.267,117.937 986.107,117.564C986.947,117.19 987.601,116.668 988.067,115.996C988.534,115.324 988.767,114.502 988.767,113.532C988.767,112.486 988.497,111.59 987.955,110.844C987.414,110.097 986.677,109.462 985.743,108.94C984.81,108.417 983.737,107.941 982.523,107.512C981.31,107.082 980.013,106.644 978.631,106.196C975.533,105.188 973.171,103.844 971.547,102.164C969.923,100.484 969.111,98.244 969.111,95.444C969.111,93.054 969.681,91.02 970.819,89.34C971.958,87.66 973.545,86.372 975.579,85.476C977.614,84.58 979.919,84.132 982.495,84.132C985.146,84.132 987.479,84.589 989.495,85.504C991.511,86.418 993.107,87.734 994.283,89.452C995.459,91.169 996.085,93.204 996.159,95.556L987.759,95.556C987.722,94.697 987.479,93.904 987.031,93.176C986.583,92.448 985.967,91.86 985.183,91.412C984.399,90.964 983.466,90.74 982.383,90.74C981.45,90.702 980.601,90.842 979.835,91.16C979.07,91.477 978.463,91.944 978.015,92.56C977.567,93.176 977.343,93.95 977.343,94.884C977.343,95.817 977.567,96.592 978.015,97.208C978.463,97.824 979.089,98.356 979.891,98.804C980.694,99.252 981.637,99.672 982.719,100.064C983.802,100.456 984.978,100.857 986.247,101.268C988.226,101.94 990.037,102.733 991.679,103.648C993.322,104.562 994.638,105.748 995.627,107.204C996.617,108.66 997.111,110.582 997.111,112.972C997.111,115.062 996.57,116.994 995.487,118.768C994.405,120.541 992.837,121.969 990.783,123.052C988.73,124.134 986.191,124.676 983.167,124.676Z" style="fill:rgb(49,44,133);fill-rule:nonzero;"/>
                </g>
            </g>
        </g>
    </g>
</svg>
