<?xml version="1.0" encoding="UTF-8" standalone="no"?>
<!DOCTYPE svg PUBLIC "-//W3C//DTD SVG 1.1//EN" "http://www.w3.org/Graphics/SVG/1.1/DTD/svg11.dtd">
<svg width="100%" height="100%" viewBox="0 0 188 188" version="1.1" xmlns="http://www.w3.org/2000/svg" xmlns:xlink="http://www.w3.org/1999/xlink" xml:space="preserve" xmlns:serif="http://www.serif.com/" style="fill-rule:evenodd;clip-rule:evenodd;stroke-linejoin:round;stroke-miterlimit:2;">
    <g transform="matrix(1,0,0,1,-535,-237.857826)">
        <g id="_2026-Logogram-Light" serif:id="2026 Logogram Light" transform="matrix(0.387423,0,0,1,111.54701,237.857826)">
            <rect x="1093" y="0" width="485" height="187.9" style="fill:rgb(224,231,255);"/>
            <g transform="matrix(1.692754,0,0,1.284768,-16.884508,-24.615069)">
                <g transform="matrix(-1,0,-0,-1,1585.585089,185.591342)">
                    <g transform="matrix(1,0,0,0.510451,0,55.504314)">
                        <path d="M766.798,101.39L758.467,110.03L711.021,62.585C695.577,47.141 690.957,23.914 699.316,3.736C707.674,-16.442 727.364,-29.599 749.205,-29.599L890.382,-29.599L879.087,-17.599L749.205,-17.599C732.218,-17.599 716.903,-7.366 710.402,8.328C703.901,24.022 707.495,42.087 719.507,54.099L766.798,101.39Z" style="fill:rgb(49,44,133);"/>
                    </g>
                    <g transform="matrix(1,0,0,0.510451,0,55.504314)">
                        <path d="M783.408,84.06L775.18,92.802L727.992,45.614C719.412,37.034 716.845,24.131 721.489,12.92C726.132,1.71 737.071,-5.599 749.205,-5.599L867.793,-5.599L856.499,6.401L749.205,6.401C741.925,6.401 735.361,10.786 732.575,17.513C729.789,24.239 731.329,31.981 736.477,37.129L783.408,84.06Z" style="fill:rgb(55,42,172);"/>
                    </g>
                    <g transform="matrix(1,0,0,0.510451,0,55.504314)">
                        <path d="M845.205,18.401L833.911,30.401L763.69,30.401L773.505,40.215L765.02,48.701L744.962,28.643C743.246,26.928 742.733,24.347 743.662,22.105C744.591,19.863 746.778,18.401 749.205,18.401L845.205,18.401Z" style="fill:rgb(67,45,215);"/>
                    </g>
                </g>
                <g>
                    <g transform="matrix(1,0,0,0.510451,0,55.504314)">
                        <path d="M766.798,99.323L758.467,107.963L711.021,60.518C695.577,45.074 690.957,21.847 699.316,1.669C707.674,-18.51 727.364,-31.666 749.205,-31.666L890.382,-31.666L879.087,-19.666L749.205,-19.666C732.218,-19.666 716.903,-9.433 710.402,6.261C703.901,21.955 707.495,40.02 719.507,52.032L766.798,99.323Z" style="fill:rgb(67,45,215);"/>
                    </g>
                    <g transform="matrix(1,0,0,0.510451,0,55.504314)">
                        <path d="M783.408,81.993L775.18,90.735L727.992,43.547C719.412,34.967 716.845,22.063 721.489,10.853C726.132,-0.357 737.071,-7.666 749.205,-7.666L867.793,-7.666L856.499,4.334L749.205,4.334C741.925,4.334 735.361,8.719 732.575,15.445C729.789,22.172 731.329,29.914 736.477,35.062L783.408,81.993Z" style="fill:rgb(55,42,172);"/>
                    </g>
                    <g transform="matrix(1,0,0,0.510451,0,55.504314)">
                        <path d="M845.205,16.334L833.911,28.334L763.69,28.334L773.505,38.148L765.02,46.634L744.962,26.576C743.246,24.86 742.733,22.28 743.662,20.038C744.591,17.796 746.778,16.334 749.205,16.334L845.205,16.334Z" style="fill:rgb(49,44,133);"/>
                    </g>
                </g>
            </g>
        </g>
    </g>
</svg>
