<?xml version="1.0" encoding="UTF-8" standalone="no"?><!DOCTYPE svg PUBLIC "-//W3C//DTD SVG 1.1//EN" "http://www.w3.org/Graphics/SVG/1.1/DTD/svg11.dtd"><svg width="100%" height="100%" viewBox="0 0 1920 508" version="1.1" xmlns="http://www.w3.org/2000/svg" xmlns:xlink="http://www.w3.org/1999/xlink" xml:space="preserve" xmlns:serif="http://www.serif.com/" style="fill-rule:evenodd;clip-rule:evenodd;stroke-linejoin:round;stroke-miterlimit:2;"><rect id="Artboard1" x="0" y="0" width="1920" height="507.959" style="fill:none;"/><g><g><g><path d="M368.353,139.588l-28.598,28.598c-22.754,-22.754 -53.614,-35.537 -85.793,-35.537c-66.964,0 -121.329,54.366 -121.329,121.329c0,66.964 54.366,121.329 121.329,121.329c32.179,0 63.039,-12.783 85.793,-35.537l28.598,28.598c-30.338,30.338 -71.486,47.382 -114.39,47.382c-89.285,0 -161.773,-72.488 -161.773,-161.773c0,-89.285 72.488,-161.773 161.773,-161.773c42.905,-0 84.052,17.044 114.39,47.382Z" style="fill:#e0e7ff;"/><path d="M396.951,225.381l-86.678,85.793c-15.169,15.169 -35.743,23.691 -57.195,23.691c-44.642,0 -80.886,-36.244 -80.886,-80.886c0,-44.642 36.244,-80.886 80.886,-80.886c21.452,0 42.026,8.522 57.195,23.691l-28.598,28.598c-7.585,-7.585 -17.871,-11.846 -28.598,-11.846c-22.321,0 -40.443,18.122 -40.443,40.443c0,22.321 18.122,40.443 40.443,40.443c10.726,0 21.013,-4.261 28.598,-11.846l86.678,-85.793c15.169,-15.169 35.743,-23.691 57.195,-23.691c44.642,0 80.886,36.244 80.886,80.886c0,44.642 -36.244,80.886 -80.886,80.886c-21.452,0 -42.026,-8.522 -57.195,-23.691l28.598,-28.598c7.585,7.585 17.871,11.846 28.598,11.846c22.321,0 40.443,-18.122 40.443,-40.443c0,-22.321 -18.122,-40.443 -40.443,-40.443c-10.726,0 -21.013,4.261 -28.598,11.846Z" style="fill:#e0e7ff;"/></g></g><g><path d="M672.918,348.311c-13.805,0 -26.275,-2.347 -37.41,-7.04c-11.136,-4.694 -19.925,-11.642 -26.367,-20.845c-6.442,-9.203 -9.939,-20.523 -10.491,-33.959l44.175,0c0.184,5.338 1.519,10.031 4.003,14.081c2.485,4.049 5.936,7.224 10.353,9.525c4.417,2.301 9.663,3.451 15.737,3.451c4.97,0 9.341,-0.736 13.114,-2.209c3.773,-1.472 6.764,-3.727 8.973,-6.764c2.209,-3.037 3.313,-6.856 3.313,-11.458c0,-4.97 -1.288,-9.203 -3.865,-12.7c-2.577,-3.497 -6.12,-6.488 -10.63,-8.973c-4.51,-2.485 -9.663,-4.74 -15.461,-6.764c-5.798,-2.025 -11.918,-4.049 -18.36,-6.074c-15.093,-5.154 -26.781,-11.964 -35.064,-20.431c-8.283,-8.467 -12.424,-19.787 -12.424,-33.959c0,-11.78 2.899,-21.811 8.697,-30.094c5.798,-8.283 13.759,-14.633 23.882,-19.05c10.123,-4.417 21.627,-6.626 34.511,-6.626c13.252,-0 24.894,2.255 34.926,6.764c10.031,4.51 18.038,11.044 24.02,19.603c5.982,8.559 9.157,18.728 9.525,30.508l-44.727,0c0,-4.233 -1.104,-8.053 -3.313,-11.458c-2.209,-3.405 -5.108,-6.074 -8.697,-8.007c-3.589,-1.933 -7.777,-2.899 -12.562,-2.899c-4.049,-0.184 -7.823,0.414 -11.32,1.795c-3.497,1.38 -6.258,3.451 -8.283,6.212c-2.025,2.761 -3.037,6.258 -3.037,10.491c0,4.233 1.012,7.823 3.037,10.768c2.025,2.945 4.924,5.476 8.697,7.593c3.773,2.117 8.191,4.141 13.252,6.074c5.062,1.933 10.63,3.911 16.704,5.936c9.755,3.313 18.774,7.224 27.057,11.734c8.283,4.51 14.909,10.399 19.879,17.67c4.97,7.27 7.454,16.888 7.454,28.852c0,10.491 -2.669,20.155 -8.007,28.99c-5.338,8.835 -13.114,15.921 -23.33,21.259c-10.215,5.338 -22.87,8.007 -37.963,8.007Z" style="fill:#e0e7ff;fill-rule:nonzero;"/><path d="M827.805,344.998c-10.123,0 -19.004,-1.611 -26.643,-4.832c-7.639,-3.221 -13.621,-8.513 -17.946,-15.875c-4.325,-7.362 -6.488,-17.394 -6.488,-30.094l0,-52.181l-23.192,0l0,-33.959l23.192,0l4.417,-38.377l36.996,0l0,38.377l35.34,0l0,33.959l-35.34,0l0,52.734c0,5.706 1.288,9.709 3.865,12.01c2.577,2.301 6.81,3.451 12.7,3.451l18.498,0l0,34.788l-25.4,0Z" style="fill:#e0e7ff;fill-rule:nonzero;"/><path d="M936.033,348.311c-14.357,0 -27.011,-2.945 -37.963,-8.835c-10.952,-5.89 -19.51,-14.127 -25.677,-24.71c-6.166,-10.584 -9.249,-22.778 -9.249,-36.582c0,-14.173 3.037,-26.781 9.111,-37.825c6.074,-11.044 14.587,-19.741 25.538,-26.091c10.952,-6.35 23.698,-9.525 38.239,-9.525c13.621,0 25.723,2.945 36.306,8.835c10.584,5.89 18.912,13.989 24.986,24.296c6.074,10.307 9.111,22.179 9.111,35.616l0,6.212c0,2.301 -0.184,4.648 -0.552,7.04l-113.474,0l0,-24.296l72.06,0c-0.552,-7.362 -3.451,-13.344 -8.697,-17.946c-5.246,-4.602 -11.734,-6.902 -19.464,-6.902c-6.074,0 -11.55,1.334 -16.427,4.003c-4.878,2.669 -8.743,6.718 -11.596,12.148c-2.853,5.43 -4.279,12.378 -4.279,20.845l0,8.007c0,6.258 1.288,11.826 3.865,16.704c2.577,4.878 6.258,8.651 11.044,11.32c4.786,2.669 10.307,4.003 16.566,4.003c6.074,0 11.136,-1.288 15.185,-3.865c4.049,-2.577 7.178,-5.89 9.387,-9.939l42.518,0c-2.761,8.835 -7.27,16.842 -13.529,24.02c-6.258,7.178 -13.897,12.884 -22.916,17.118c-9.019,4.233 -19.05,6.35 -30.094,6.35Z" style="fill:#e0e7ff;fill-rule:nonzero;"/><path d="M1071.318,348.311c-11.044,0 -20.155,-1.841 -27.333,-5.522c-7.178,-3.681 -12.424,-8.605 -15.737,-14.771c-3.313,-6.166 -4.97,-13.022 -4.97,-20.569c0,-8.283 2.071,-15.599 6.212,-21.949c4.141,-6.35 10.63,-11.366 19.464,-15.047c8.835,-3.681 20.155,-5.522 33.959,-5.522l33.683,0c0,-6.258 -0.828,-11.366 -2.485,-15.323c-1.657,-3.957 -4.279,-6.902 -7.869,-8.835c-3.589,-1.933 -8.329,-2.899 -14.219,-2.899c-6.442,0 -12.01,1.38 -16.704,4.141c-4.694,2.761 -7.593,7.086 -8.697,12.976l-39.757,0c0.92,-10.123 4.233,-18.912 9.939,-26.367c5.706,-7.454 13.298,-13.298 22.778,-17.532c9.479,-4.233 20.385,-6.35 32.717,-6.35c13.252,0 24.802,2.117 34.65,6.35c9.847,4.233 17.486,10.538 22.916,18.912c5.43,8.375 8.145,18.636 8.145,30.784l0,84.208l-34.235,0l-4.694,-20.707l-0.828,0c-2.577,4.049 -5.522,7.547 -8.835,10.491c-3.313,2.945 -6.948,5.43 -10.906,7.454c-3.957,2.025 -8.191,3.543 -12.7,4.556c-4.51,1.012 -9.341,1.519 -14.495,1.519Zm13.805,-31.474c4.417,0 8.329,-0.736 11.734,-2.209c3.405,-1.472 6.304,-3.451 8.697,-5.936c2.393,-2.485 4.325,-5.384 5.798,-8.697c1.472,-3.313 2.577,-6.902 3.313,-10.768l-26.781,0c-4.786,0 -8.697,0.598 -11.734,1.795c-3.037,1.196 -5.292,2.853 -6.764,4.97c-1.472,2.117 -2.209,4.648 -2.209,7.593c0,2.945 0.736,5.384 2.209,7.316c1.472,1.933 3.589,3.405 6.35,4.417c2.761,1.012 5.89,1.519 9.387,1.519Z" style="fill:#e0e7ff;fill-rule:nonzero;"/><path d="M1242.495,348.311c-12.7,0 -23.928,-3.083 -33.683,-9.249c-9.755,-6.166 -17.394,-14.679 -22.916,-25.538c-5.522,-10.86 -8.283,-23.192 -8.283,-36.996c0,-13.989 2.761,-26.367 8.283,-37.134c5.522,-10.768 13.206,-19.234 23.054,-25.4c9.847,-6.166 21.213,-9.249 34.097,-9.249c9.939,0 18.728,1.841 26.367,5.522c7.639,3.681 13.759,8.375 18.36,14.081l0,-73.993l41.414,0l0,194.645l-35.34,0l-2.761,-22.087l-0.828,0c-3.129,5.154 -6.994,9.617 -11.596,13.39c-4.602,3.773 -9.847,6.718 -15.737,8.835c-5.89,2.117 -12.7,3.175 -20.431,3.175Zm11.872,-34.235c6.81,0 12.838,-1.657 18.084,-4.97c5.246,-3.313 9.295,-7.777 12.148,-13.39c2.853,-5.614 4.279,-12.102 4.279,-19.464c0,-7.362 -1.426,-13.851 -4.279,-19.464c-2.853,-5.614 -6.902,-10.031 -12.148,-13.252c-5.246,-3.221 -11.366,-4.832 -18.36,-4.832c-6.626,0 -12.608,1.657 -17.946,4.97c-5.338,3.313 -9.433,7.777 -12.286,13.39c-2.853,5.614 -4.279,12.01 -4.279,19.188c0,7.362 1.426,13.851 4.279,19.464c2.853,5.614 6.948,10.077 12.286,13.39c5.338,3.313 11.412,4.97 18.222,4.97Z" style="fill:#e0e7ff;fill-rule:nonzero;"/><rect x="1357.902" y="150.354" width="41.414" height="194.645" style="fill:#e0e7ff;fill-rule:nonzero;"/><path d="M1492.359,348.311c-13.252,0 -25.262,-3.083 -36.03,-9.249c-10.768,-6.166 -19.28,-14.633 -25.538,-25.4c-6.258,-10.768 -9.387,-23.146 -9.387,-37.134c0,-13.989 3.129,-26.413 9.387,-37.272c6.258,-10.86 14.771,-19.326 25.538,-25.4c10.768,-6.074 22.778,-9.111 36.03,-9.111c13.436,0 25.492,3.037 36.168,9.111c10.676,6.074 19.142,14.541 25.4,25.4c6.258,10.86 9.387,23.284 9.387,37.272c0,13.989 -3.129,26.367 -9.387,37.134c-6.258,10.768 -14.771,19.234 -25.538,25.4c-10.768,6.166 -22.778,9.249 -36.03,9.249Zm0,-35.34c5.338,0 10.169,-1.38 14.495,-4.141c4.325,-2.761 7.823,-6.81 10.491,-12.148c2.669,-5.338 4.003,-12.056 4.003,-20.155c0,-8.099 -1.334,-14.863 -4.003,-20.293c-2.669,-5.43 -6.166,-9.479 -10.491,-12.148c-4.325,-2.669 -9.065,-4.003 -14.219,-4.003c-5.338,-0 -10.215,1.334 -14.633,4.003c-4.417,2.669 -7.915,6.718 -10.491,12.148c-2.577,5.43 -3.865,12.194 -3.865,20.293c0,7.915 1.288,14.587 3.865,20.017c2.577,5.43 6.074,9.525 10.491,12.286c4.417,2.761 9.203,4.141 14.357,4.141Z" style="fill:#e0e7ff;fill-rule:nonzero;"/><path d="M1584.573,344.998l0,-136.942l35.34,0l3.865,28.99l0.828,0c3.681,-8.651 7.961,-15.323 12.838,-20.017c4.878,-4.694 10.491,-7.915 16.842,-9.663c6.35,-1.749 13.206,-2.623 20.569,-2.623l0,43.899l-11.32,0c-5.89,0 -11.182,0.598 -15.875,1.795c-4.694,1.196 -8.651,3.221 -11.872,6.074c-3.221,2.853 -5.66,6.672 -7.316,11.458c-1.657,4.786 -2.485,10.584 -2.485,17.394l0,59.636l-41.414,0Z" style="fill:#e0e7ff;fill-rule:nonzero;"/><path d="M1757.407,348.311c-14.357,0 -27.011,-2.945 -37.963,-8.835c-10.952,-5.89 -19.51,-14.127 -25.677,-24.71c-6.166,-10.584 -9.249,-22.778 -9.249,-36.582c0,-14.173 3.037,-26.781 9.111,-37.825c6.074,-11.044 14.587,-19.741 25.538,-26.091c10.952,-6.35 23.698,-9.525 38.239,-9.525c13.621,0 25.723,2.945 36.306,8.835c10.584,5.89 18.912,13.989 24.986,24.296c6.074,10.307 9.111,22.179 9.111,35.616l0,6.212c0,2.301 -0.184,4.648 -0.552,7.04l-113.474,0l0,-24.296l72.06,0c-0.552,-7.362 -3.451,-13.344 -8.697,-17.946c-5.246,-4.602 -11.734,-6.902 -19.464,-6.902c-6.074,0 -11.55,1.334 -16.427,4.003c-4.878,2.669 -8.743,6.718 -11.596,12.148c-2.853,5.43 -4.279,12.378 -4.279,20.845l0,8.007c0,6.258 1.288,11.826 3.865,16.704c2.577,4.878 6.258,8.651 11.044,11.32c4.786,2.669 10.307,4.003 16.566,4.003c6.074,0 11.136,-1.288 15.185,-3.865c4.049,-2.577 7.178,-5.89 9.387,-9.939l42.518,0c-2.761,8.835 -7.27,16.842 -13.529,24.02c-6.258,7.178 -13.897,12.884 -22.916,17.118c-9.019,4.233 -19.05,6.35 -30.094,6.35Z" style="fill:#e0e7ff;fill-rule:nonzero;"/></g></g></svg>